HIERARCHY
ROOT Hips
{
	OFFSET -3.958830 18.904000 13.208200
	CHANNELS 6 Xposition Yposition Zposition Zrotation Yrotation Xrotation 
	JOINT LHipJoint
	{
		OFFSET 0.000000 0.000000 0.000000
		CHANNELS 3 Zrotation Yrotation Xrotation
		JOINT LeftUpLeg
		{
			OFFSET 1.800000 -1.400000 0.085000
			CHANNELS 3 Zrotation Yrotation Xrotation
			JOINT LeftLeg
			{
				OFFSET 2.215000 -6.000000 0.000000
				CHANNELS 3 Zrotation Yrotation Xrotation
				JOINT LeftFoot
				{
					OFFSET 2.500000 -6.900000 0.000000
					CHANNELS 3 Zrotation Yrotation Xrotation
					JOINT LeftToeBase
					{
						OFFSET 0.200000 -0.500000 1.950000
						CHANNELS 3 Zrotation Yrotation Xrotation
						End Site
						{
							OFFSET 0.000000 0.000000 0.000000
						}
					}
				}
			}
		}
	}
	JOINT RHipJoint
	{
		OFFSET 0.000000 0.000000 0.000000
		CHANNELS 3 Zrotation Yrotation Xrotation
		JOINT RightUpLeg
		{
			OFFSET -1.800000 -1.400000 0.085000
			CHANNELS 3 Zrotation Yrotation Xrotation
			JOINT RightLeg
			{
				OFFSET -2.215000 -6.000000 0.000000
				CHANNELS 3 Zrotation Yrotation Xrotation
				JOINT RightFoot
				{
					OFFSET -2.500000 -6.900000 0.000000
					CHANNELS 3 Zrotation Yrotation Xrotation
					JOINT RightToeBase
					{
						OFFSET -0.200000 -0.500000 1.950000
						CHANNELS 3 Zrotation Yrotation Xrotation
						End Site
						{
							OFFSET 0.000000 0.000000 0.000000
						}
					}
				}
			}
		}
	}
	JOINT LowerBack
	{
		OFFSET 0.000000 0.000000 0.000000
		CHANNELS 3 Zrotation Yrotation Xrotation
		JOINT Spine
		{
			OFFSET -0.087000 1.940000 -0.288900
			CHANNELS 3 Zrotation Yrotation Xrotation
			JOINT Spine1
			{
				OFFSET 0.000000 1.950000 0.060000
				CHANNELS 3 Zrotation Yrotation Xrotation
				JOINT Neck
				{
					OFFSET 0.000000 0.000000 0.000000
					CHANNELS 3 Zrotation Yrotation Xrotation
					JOINT Neck1
					{
						OFFSET 0.000000 1.600000 0.340000
						CHANNELS 3 Zrotation Yrotation Xrotation
						JOINT Head
						{
							OFFSET 0.000000 1.667000 -0.240000
							CHANNELS 3 Zrotation Yrotation Xrotation
							End Site
							{
								OFFSET 0.000000 0.000000 0.000000
							}
						}
					}
				}
				JOINT LeftShoulder
				{
					OFFSET 0.000000 0.000000 0.000000
					CHANNELS 3 Zrotation Yrotation Xrotation
					JOINT LeftArm
					{
						OFFSET 2.700000 1.550000 -0.730000
						CHANNELS 3 Zrotation Yrotation Xrotation
						JOINT LeftForeArm
						{
							OFFSET 5.450000 0.000000 0.000000
							CHANNELS 3 Zrotation Yrotation Xrotation
							JOINT LeftHand
							{
								OFFSET 3.450000 0.000000 0.000000
								CHANNELS 3 Zrotation Yrotation Xrotation
								JOINT LeftHandIndex1
								{
									OFFSET 0.750000 0.000000 0.000000
									CHANNELS 3 Zrotation Yrotation Xrotation
									End Site
									{
										OFFSET 0.000000 0.000000 0.000000
									}
								}
							}
						}
					}
				}
				JOINT RightShoulder
				{
					OFFSET 0.000000 0.000000 0.000000
					CHANNELS 3 Zrotation Yrotation Xrotation
					JOINT RightArm
					{
						OFFSET -2.700000 1.550000 -0.730000
						CHANNELS 3 Zrotation Yrotation Xrotation
						JOINT RightForeArm
						{
							OFFSET -5.450000 0.000000 0.000000
							CHANNELS 3 Zrotation Yrotation Xrotation
							JOINT RightHand
							{
								OFFSET -3.450000 0.000000 0.000000
								CHANNELS 3 Zrotation Yrotation Xrotation
								JOINT RightHandIndex1
								{
									OFFSET -0.750000 0.000000 0.000000
									CHANNELS 3 Zrotation Yrotation Xrotation
									End Site
									{
										OFFSET 0.000000 0.000000 0.000000
									}
								}
							}
						}
					}
				}
			}
		}
	}
}
MOTION
Frames: 9
Frame Time: 0.016667
2.327690 17.092430 -1.564100 -5.113426 -23.041327 5.085877 -15.035944 12.986428 4.241122 3.804257 -4.643751 -31.810698 -7.727363 11.944885 42.986593 -0.258470 8.626335 1.828458 0.666830 -0.068030 0.432470 18.311386 -10.698669 3.108800 1.057539 -1.666749 5.829762 3.700866 -6.044726 12.960212 -0.977078 -4.702044 3.230660 0.031070 0.418430 0.403580 -3.525892 -1.984158 -8.518479 15.498080 4.728951 19.420598 -7.469019 9.860785 -6.285485 4.616462 -6.064066 -13.121018 -15.251678 5.177869 40.982661 -3.674060 1.171390 -18.858690 -20.165780 -5.709615 2.153260 -5.034316 5.001182 0.086975 16.289372 -1.220344 -1.153431 -3.895401 2.349715 1.293600 0.110740 0.092740 0.531010 11.203533 14.702627 9.680593 -2.264567 -1.720265 -4.196896 -20.699868 10.837605 -0.798881 1.779113 -1.215426 -0.485870 0.495790 -0.086850 -0.445580 
2.349300 17.078810 -1.585750 -4.874800 -23.322508 4.939249 -15.053636 13.011236 4.240398 4.290061 -4.616911 -32.146892 -6.964876 11.748759 43.610369 -0.259509 8.662290 1.820930 0.688250 -0.026950 0.421170 18.294576 -10.704784 3.068711 0.710515 -1.612174 5.645638 3.502037 -6.000693 13.129376 -0.969990 -4.711821 3.241433 0.056900 0.439160 0.406560 -3.472281 -2.021087 -8.494061 14.879506 4.515877 19.773121 -7.107581 9.556363 -6.289280 4.550859 -6.172112 -12.846729 -15.063972 5.423835 39.963127 -3.775950 1.566130 -18.627850 -20.448319 -5.542755 2.089927 -4.909080 5.256376 0.095656 16.598060 -1.423175 -1.145471 -3.891820 2.375832 1.274140 0.131440 0.086660 0.561340 11.629418 14.615239 9.391880 -2.783143 -0.932107 -4.261014 -21.137753 10.194194 -0.879643 1.780613 -1.249642 -0.482610 0.500520 -0.107760 -0.428860 
2.375750 17.050540 -1.619570 -4.412362 -23.879843 4.535921 -15.077177 13.077855 4.158298 5.524591 -4.242206 -31.919423 -6.041836 11.479967 43.817174 -0.295973 8.658156 1.824543 0.736290 0.033950 0.464500 18.264689 -10.748453 3.029690 0.031761 -1.570929 5.594427 3.346016 -5.964563 13.085037 -0.975038 -4.741764 3.230281 0.105710 0.450460 0.430290 -3.375837 -2.003878 -8.437330 13.620345 4.398812 20.245697 -6.566325 9.143615 -6.197436 4.585286 -5.698158 -11.950051 -13.360418 5.376617 38.690187 -5.176220 2.545090 -18.956020 -21.044395 -4.915312 1.587967 -4.144969 5.016502 0.106047 17.254938 -2.248124 -1.219978 -3.910439 2.395042 1.252580 0.165770 0.096140 0.588070 11.966839 13.682830 8.587789 -2.401224 1.105980 -4.463959 -22.281450 8.854464 -1.063382 1.787616 -1.308185 -0.479410 0.505750 -0.146920 -0.426830 
2.406210 17.005410 -1.631960 -4.055384 -24.401796 4.499610 -15.059841 13.138127 4.004111 6.833110 -3.787533 -31.352592 -4.588413 10.827434 43.502125 -0.358637 8.473084 1.874310 0.784480 0.109640 0.483950 18.276704 -10.857201 2.977764 -0.688181 -1.445216 5.061115 3.293848 -5.944836 13.493081 -0.963089 -4.768458 3.205224 0.164180 0.461580 0.453130 -3.405572 -1.855656 -8.290540 12.835970 4.035706 19.565126 -5.997703 8.258935 -5.302203 4.292994 -5.707458 -10.905347 -12.565431 5.743660 36.713681 -5.314790 3.205610 -19.103360 -20.961156 -4.080366 1.232895 -4.585944 4.516067 0.055961 18.264642 -2.451141 -1.258527 -3.938042 2.458487 1.202080 0.197430 0.092450 0.606180 12.244993 12.590577 7.489271 -1.823715 3.622463 -4.884590 -24.456139 7.693152 -1.397320 1.795866 -1.401967 -0.456950 0.496820 -0.172990 -0.411720 
2.442960 16.961410 -1.625860 -4.258191 -24.791205 4.891295 -15.011464 13.273340 3.768560 8.472842 -3.029315 -30.250867 -2.828276 9.849118 42.231179 -0.406735 8.042574 1.994997 0.852090 0.229640 0.474000 18.307078 -11.009215 2.944160 -0.918597 -1.269357 4.003222 3.107729 -5.922085 14.687193 -0.958419 -4.796293 3.182109 0.217590 0.457250 0.509540 -3.496531 -1.694841 -8.112827 13.016176 3.626697 18.337834 -5.756466 7.402394 -4.560599 4.117692 -5.573196 -10.061953 -11.705556 5.982536 35.103126 -5.210650 3.690920 -18.691110 -20.743461 -3.307709 0.870443 -5.477753 3.677962 -0.111016 19.578378 -2.804647 -1.280842 -3.948809 2.591950 1.120990 0.228680 0.110340 0.650600 12.193967 11.354729 6.665816 -0.764634 4.868104 -4.827453 -25.092072 8.915824 -1.806591 1.780422 -1.509750 -0.375120 0.434880 -0.221490 -0.360810 
2.493410 16.927310 -1.620490 -4.755538 -24.382565 5.256325 -14.939667 13.477800 3.523279 10.202020 -2.385186 -28.641378 -1.311949 8.686500 39.764077 -0.497271 7.450583 2.201855 0.892120 0.282780 0.497810 18.344079 -11.154074 2.930441 -0.763957 -0.929664 2.528014 3.405784 -6.117354 17.102007 -0.955050 -4.842660 3.162486 0.234970 0.454490 0.535060 -3.628507 -1.641691 -7.968202 14.139527 2.537557 17.664921 -6.481182 6.220679 -4.507865 4.219529 -5.257325 -9.502577 -10.837154 6.139426 34.710518 -5.458610 4.163160 -18.261300 -20.486502 -2.701141 0.537995 -6.128795 2.896794 -0.297561 20.825051 -3.391178 -1.345860 -3.953430 2.646569 1.081880 0.244680 0.120910 0.673520 11.528524 10.052258 6.062161 1.948865 5.509134 -4.974718 -26.981722 11.223532 -2.454874 1.746279 -1.580105 -0.334930 0.408450 -0.260140 -0.341530 
2.546000 16.886240 -1.608560 -5.593259 -24.463489 5.910816 -14.863875 13.691833 3.250080 12.034147 -1.563352 -26.689685 -0.058201 7.700140 36.704654 -0.597796 6.820126 2.387960 0.965870 0.378260 0.517880 18.386115 -11.312611 2.894674 -0.312328 -0.181279 0.153329 3.211195 -6.295188 21.256380 -0.971068 -4.984253 3.067321 0.279980 0.415530 0.594170 -3.769960 -1.545638 -7.781383 15.460815 1.740892 16.884021 -7.032411 5.280189 -4.484362 4.270107 -4.902628 -8.719649 -9.742797 6.550226 33.542766 -5.572780 4.996320 -18.261990 -20.472392 -1.855326 0.053561 -6.452779 2.041302 -0.425076 21.827085 -4.266372 -1.455823 -3.932855 2.787389 1.048600 0.248810 0.150590 0.702470 11.207381 8.431104 5.309990 4.487128 6.036259 -5.043155 -28.628831 13.108108 -3.084371 1.724152 -1.698986 -0.271000 0.322130 -0.308950 -0.321230 
2.595310 16.850260 -1.593440 -6.550733 -25.175999 6.712589 -14.800221 13.922955 2.988799 13.859706 -0.749885 -24.182649 0.511817 7.041440 32.992219 -0.667165 6.239517 2.592500 0.968600 0.391040 0.509510 18.412463 -11.403430 2.896839 0.128968 0.817864 -2.435003 3.065515 -6.469632 25.374387 -0.974029 -5.153076 2.990279 0.278920 0.413740 0.610850 -3.866825 -1.570290 -7.645681 16.878099 1.055027 16.200443 -7.514334 4.561005 -4.694049 4.396809 -4.995109 -8.558435 -9.745187 7.221850 33.180345 -5.699040 5.751780 -17.431980 -19.864942 -1.258894 -0.058125 -7.875790 1.786116 -0.568474 22.565517 -5.260055 -1.568817 -3.931276 2.839698 1.016570 0.260660 0.148540 0.706970 10.268522 7.659587 5.043372 6.871666 6.651547 -5.057645 -29.552157 13.565245 -3.367912 1.729430 -1.744859 -0.245540 0.288090 -0.317060 -0.307870 
2.655150 16.804800 -1.576360 -7.770577 -25.290751 8.071466 -14.752558 13.946515 2.801518 15.626870 -0.395756 -22.665484 0.884986 6.568882 30.136520 -0.750034 5.930007 2.731829 0.962690 0.377970 0.494380 18.475625 -11.389619 2.888544 0.438819 2.140239 -5.792058 3.714827 -7.034590 29.891633 -0.987657 -5.515738 2.847189 0.300120 0.482390 0.629610 -4.061797 -1.485545 -7.476196 19.118298 -0.044567 14.810113 -8.053673 3.331285 -4.244881 4.344850 -5.536999 -8.077173 -10.250055 8.074017 30.812493 -5.907740 6.342950 -15.619900 -18.762040 -0.397002 -0.255973 -10.226080 0.700872 -0.580379 23.549665 -5.244182 -1.644198 -4.000139 2.867814 0.970210 0.324700 0.096690 0.722220 9.140571 6.664229 4.482401 8.718345 8.163345 -4.944728 -30.357675 12.673479 -3.532980 1.722407 -1.817697 -0.265090 0.294160 -0.305940 -0.299520 
